<!--?xml version="1.0" standalone="no"?-->

<svg version="1.0" xmlns="http://www.w3.org/2000/svg" width="216.000000pt" height="300.000000pt" viewBox="0 0 216.000000 300.000000" preserveAspectRatio="xMidYMid meet">
<g transform="translate(0.000000,300.000000) scale(0.100000,-0.100000)" fill="#5B5B5B" stroke="none">
<path class="node" id="node1" d="M1180 2793 c0 -5 12 -19 25 -32 27 -25 31 -36 14 -46 -7 -5 -3 -15
10 -29 71 -75 56 -207 -40 -339 -35 -49 -35 -48 -4 28 28 69 32 139 10 200 -8
22 -15 48 -15 58 0 9 -4 17 -10 17 -15 0 -12 -34 6 -79 20 -51 15 -90 -6 -48
-24 46 -61 63 -107 49 -21 -7 -45 -16 -53 -21 -27 -18 -5 -20 43 -4 43 14 49
14 72 -1 14 -10 30 -29 36 -43 16 -42 14 -115 -4 -155 l-16 -36 -59 18 c-93
29 -142 9 -183 -75 -11 -22 -30 -54 -42 -71 l-23 -31 -34 24 c-31 21 -45 23
-153 23 -82 0 -126 4 -145 14 -31 16 -93 9 -99 -11 -4 -12 100 -94 144 -115
20 -10 21 -12 6 -23 -12 -9 -16 -31 -18 -89 -2 -73 0 -79 27 -106 15 -16 37
-32 48 -35 28 -9 25 -22 -16 -72 -30 -37 -35 -48 -29 -76 16 -72 107 -228 179
-304 16 -18 27 -35 23 -39 -8 -9 -96 41 -153 87 -108 87 -125 103 -164 154
-23 30 -50 76 -60 104 -18 45 -18 53 -5 84 12 30 13 37 0 47 -29 24 -50 8 -53
-42 l-3 -48 -65 55 c-35 30 -69 55 -74 55 -12 0 -30 -41 -23 -53 3 -5 15 -13
27 -18 18 -8 16 -9 -8 -4 -33 7 -45 -5 -38 -40 4 -21 12 -26 54 -31 l49 -7
-31 -18 c-34 -21 -37 -31 -15 -49 12 -10 21 -8 50 10 l36 22 42 -20 c39 -18
98 -88 171 -203 9 -15 36 -34 59 -43 26 -10 66 -41 103 -78 56 -58 62 -68 72
-127 6 -36 10 -65 9 -66 -1 0 -18 -13 -39 -28 -28 -21 -41 -41 -56 -89 -34
-107 -45 -169 -46 -263 -1 -139 45 -240 125 -271 21 -9 39 -18 39 -20 0 -3
-12 -28 -26 -56 -30 -59 -27 -83 17 -126 72 -71 167 -89 268 -52 97 35 111 61
81 146 -11 32 -20 61 -20 64 0 4 29 12 65 19 36 6 96 23 133 36 36 13 67 23
67 22 70 -125 137 -157 231 -109 49 25 108 88 130 139 19 45 14 127 -8 150 -9
8 -42 17 -77 20 l-61 6 7 36 c5 20 7 66 6 103 -2 79 -28 136 -109 245 -69 93
-108 122 -183 136 -60 11 -61 12 -61 45 0 18 -7 49 -15 68 l-14 35 70 72 c39
40 84 96 101 125 17 29 53 77 82 107 42 44 58 55 84 55 25 0 35 -6 47 -30 8
-16 15 -36 15 -45 0 -19 34 -20 50 0 10 12 8 22 -14 55 -29 45 -25 49 19 20
38 -25 52 -25 65 1 15 27 0 44 -48 59 -72 22 -69 20 -50 31 9 5 31 11 50 13
29 3 33 7 36 35 3 27 0 31 -20 31 -13 0 -49 -16 -81 -35 -32 -19 -67 -35 -79
-35 -18 0 -19 4 -14 34 8 44 -1 66 -28 66 -43 0 -49 -13 -32 -64 23 -68 20
-86 -25 -152 -44 -62 -267 -293 -284 -294 -5 0 -16 4 -23 9 -11 7 -9 16 10 47
54 86 149 293 164 356 16 62 16 78 1 192 -16 129 -40 201 -80 244 l-22 24 56
52 c75 70 175 136 207 136 14 0 36 -10 49 -22 29 -27 31 -6 2 23 -14 14 -30
20 -50 17 -22 -4 -29 0 -31 16 -3 19 -5 17 -20 -10 -9 -17 -34 -42 -55 -56
-21 -14 -69 -54 -108 -89 -48 -44 -64 -55 -50 -34 10 17 37 61 58 98 l40 69
-7 91 c-6 94 -25 148 -69 195 -20 22 -37 29 -37 15z m-30 -507 c49 -24 69 -40
82 -66 26 -54 49 -186 50 -285 1 -75 -3 -101 -24 -155 -44 -110 -164 -344
-196 -382 -21 -25 -116 -58 -187 -65 l-61 -6 -53 59 c-87 98 -170 252 -171
316 0 26 46 107 62 108 4 0 -5 -20 -19 -45 -24 -43 -24 -47 -9 -70 22 -34 77
-55 142 -55 105 0 249 98 291 199 8 19 21 40 29 48 19 20 18 42 -3 49 -10 3
-26 10 -35 15 -22 11 -38 12 -38 0 0 -5 15 -14 33 -21 l32 -11 -30 -17 c-44
-24 -179 -21 -280 7 -83 23 -183 71 -209 100 -15 16 -14 19 8 40 20 19 27 20
52 10 62 -24 137 -39 202 -41 79 -2 96 5 88 37 -4 15 1 28 14 40 20 18 20 17
20 -11 1 -16 9 -39 19 -51 16 -19 23 -21 52 -13 19 6 49 10 66 10 18 0 33 5
33 10 0 6 -9 10 -21 10 -19 0 -19 1 -5 22 33 46 8 118 -40 118 -14 0 -36 -7
-49 -16 -24 -16 -25 -15 -25 5 0 24 -36 65 -50 56 -17 -11 -11 11 11 39 14 18
30 26 50 26 18 0 32 6 36 16 8 20 50 11 133 -30z m-153 28 c-3 -3 -12 -4 -19
-1 -8 3 -5 6 6 6 11 1 17 -2 13 -5z m-489 -121 c15 -9 29 -18 31 -20 2 -1 -2
-9 -9 -18 -10 -11 -10 -15 0 -15 6 0 14 9 17 20 5 18 14 20 74 20 37 0 71 -5
74 -11 4 -6 7 -27 7 -47 0 -34 1 -35 10 -12 6 16 5 33 -1 47 -10 21 -8 23 20
23 20 0 40 -10 60 -29 32 -32 35 -47 17 -86 -10 -23 -17 -26 -41 -21 -16 3
-36 6 -43 6 -10 0 -8 6 6 20 12 12 20 32 19 53 l-1 32 -9 -31 c-5 -17 -18 -39
-29 -49 -19 -17 -26 -18 -68 -6 -57 15 -58 16 -41 37 13 16 12 16 -7 4 -17
-10 -25 -10 -50 3 -45 24 -114 76 -114 87 0 16 48 12 78 -7z m438 -26 c-3 -13
-15 -36 -27 -51 l-21 -27 -24 22 -24 23 30 12 c16 7 35 25 42 39 14 31 33 18
24 -18z m118 -13 c50 -50 -35 -148 -93 -108 -26 19 -27 44 -2 44 29 0 73 40
68 61 -6 23 6 24 27 3z m-204 -56 c34 -46 37 -58 15 -58 -9 0 -12 6 -8 17 5
12 1 11 -15 -5 -23 -23 -42 -29 -42 -13 0 6 5 13 11 17 7 4 9 22 6 45 -3 22
-3 39 -1 39 2 0 17 -19 34 -42z m-132 -198 c18 0 15 -16 -11 -46 -20 -23 -28
-26 -60 -20 -54 10 -107 60 -107 100 0 18 2 35 5 37 2 3 40 -12 82 -33 43 -21
84 -38 91 -38z m762 -9 c0 -26 -16 -35 -24 -15 -10 25 -7 34 9 34 8 0 15 -9
15 -19z m-493 -23 c31 6 58 11 59 9 1 -1 -13 -27 -31 -57 -59 -97 -165 -160
-269 -160 -53 0 -111 26 -122 55 -7 18 35 95 52 95 7 0 27 17 45 38 l31 37 89
-14 c72 -12 99 -13 146 -3z m683 -3 c0 -9 -9 -15 -21 -15 -18 0 -19 2 -9 15 7
8 16 15 21 15 5 0 9 -7 9 -15z m-134 -46 c33 15 44 14 44 -4 0 -16 25 -29 73
-39 15 -4 27 -13 27 -21 0 -18 1 -18 -45 1 -58 24 -70 16 -39 -29 15 -20 24
-40 19 -45 -4 -4 -10 -2 -12 5 -2 7 -14 24 -25 39 -19 23 -26 26 -67 21 -41
-5 -44 -4 -26 9 10 8 27 14 37 14 10 0 18 5 18 10 0 13 -12 13 -44 0 -27 -10
-33 0 -20 34 5 13 9 14 20 5 11 -9 21 -9 40 0z m-1299 -41 c21 -18 43 -40 50
-48 6 -8 22 -15 35 -15 17 0 28 -10 42 -38 10 -21 15 -41 12 -44 -3 -4 -24 3
-45 15 -48 27 -61 27 -89 2 -23 -22 -32 -25 -32 -10 0 5 14 16 30 25 36 19 38
30 8 40 l-23 8 23 4 c12 2 22 8 22 12 0 11 -31 35 -62 49 -16 6 -28 16 -28 22
0 18 18 11 57 -22z m128 22 c3 -5 1 -10 -4 -10 -6 0 -11 5 -11 10 0 6 2 10 4
10 3 0 8 -4 11 -10z m-167 -73 c2 -10 -3 -17 -12 -17 -10 0 -16 9 -16 21 0 24
23 21 28 -4z m1262 -10 c0 -2 -9 -12 -20 -22 -24 -21 -27 -14 -4 9 15 15 24
20 24 13z m-996 -183 c25 -29 46 -55 46 -58 0 -19 -24 2 -70 60 -59 76 -45 74
24 -2z m891 56 c-3 -5 -11 -10 -16 -10 -6 0 -7 5 -4 10 3 6 11 10 16 10 6 0 7
-4 4 -10z m-25 -39 c0 -18 -48 -66 -91 -90 l-43 -24 35 47 c39 55 99 95 99 67z
m-785 -108 c31 -35 31 -45 3 -34 -13 5 -22 16 -20 25 2 11 -2 14 -13 10 -15
-6 -21 7 -8 19 10 10 12 9 38 -20z m85 -82 c-1 -11 -50 50 -50 62 0 6 11 -4
25 -23 14 -19 25 -36 25 -39z m560 49 c-24 -15 -37 -11 -16 5 11 8 22 12 25 9
3 -3 -1 -9 -9 -14z m-70 -6 c0 -3 -10 -14 -21 -23 -18 -14 -20 -21 -10 -38 15
-30 48 -38 70 -19 10 9 20 16 23 16 11 0 29 -84 23 -110 -9 -42 -92 -125 -148
-150 -101 -45 -229 -32 -280 30 -32 38 -42 109 -24 170 l13 45 71 -3 c89 -5
165 16 213 57 31 27 70 41 70 25z m50 -30 c0 -15 -22 -44 -34 -44 -22 0 -37
25 -24 38 12 12 58 17 58 6z m-433 -81 c-10 -22 -11 -22 -28 -7 -10 9 -21 25
-24 35 -4 11 -11 17 -16 14 -5 -3 -6 1 -3 9 5 13 11 12 44 -6 34 -20 37 -25
27 -45z m562 -94 c61 -18 136 -90 195 -188 44 -74 49 -89 54 -155 11 -179 -61
-275 -273 -359 -124 -49 -253 -65 -399 -49 -151 17 -187 34 -226 113 -53 104
-51 236 7 421 26 85 79 133 113 103 25 -23 114 -55 153 -55 96 -1 226 73 277
156 15 23 28 33 39 30 9 -3 36 -10 60 -17z m379 -534 c8 -7 16 -31 19 -53 15
-115 -134 -260 -228 -222 -36 15 -99 84 -99 109 0 11 18 30 43 46 58 38 85 64
113 107 l23 37 58 -6 c32 -3 64 -11 71 -18z m-725 -242 c122 -7 121 -6 134
-100 5 -36 2 -48 -16 -67 -51 -54 -197 -61 -270 -13 -22 15 -47 40 -55 55 -14
26 -13 34 6 86 l22 58 35 -6 c20 -4 85 -9 144 -13z"></path>
<path class="node" id="node2" d="M1034 2295 c-4 -10 7 -29 35 -54 22 -21 41 -45 41 -53 0 -9 8 -22 17
-29 15 -13 16 -11 10 11 -4 14 -7 33 -7 42 0 19 -44 74 -71 89 -15 8 -21 6
-25 -6z m46 -30 c13 -14 21 -25 18 -25 -2 0 -15 11 -28 25 -13 14 -21 25 -18
25 2 0 15 -11 28 -25z"></path>
<path class="node" id="node3" d="M610 2151 c0 -25 6 -27 13 -6 4 8 2 17 -3 20 -6 4 -10 -3 -10 -14z"></path>
<path class="node" id="node4" d="M662 2100 c-12 -32 -11 -34 4 -19 9 9 14 25 12 35 -3 14 -7 10 -16
-16z"></path>
<path class="node" id="node5" d="M770 2070 c-6 -11 -8 -20 -6 -20 3 0 10 9 16 20 6 11 8 20 6 20 -3 0
-10 -9 -16 -20z"></path>
<path class="node" id="node6" d="M320 1691 c0 -4 12 -13 26 -20 20 -9 25 -9 22 0 -5 14 -48 32 -48 20z"></path>
<path class="node" id="node7" d="M785 1210 c-20 -38 -19 -63 3 -83 35 -32 123 -10 137 33 7 24 -21 66
-50 74 -48 13 -74 6 -90 -24z m99 -1 c25 -20 36 -59 16 -59 -5 0 -7 7 -4 15 4
8 1 15 -5 15 -6 0 -11 -6 -11 -14 0 -20 -57 -31 -75 -16 -18 15 -19 34 -3 60
16 26 48 25 82 -1z"></path>
<path class="node" id="node8" d="M1275 1114 c-22 -20 -85 -58 -140 -84 -109 -53 -116 -64 -16 -25 75
29 145 73 186 115 40 41 19 37 -30 -6z"></path>
<path class="node" id="node9" d="M709 944 c-19 -20 -24 -36 -23 -72 1 -54 28 -82 80 -82 48 0 74 29
74 83 0 47 -5 56 -40 80 -35 24 -63 21 -91 -9z m71 1 c33 -17 50 -43 50 -76 0
-27 -27 -59 -49 -59 -10 1 -5 7 12 16 27 15 35 38 18 49 -5 3 -11 -5 -13 -17
-4 -28 -29 -34 -68 -16 -37 16 -41 60 -8 95 26 27 22 27 58 8z"></path>
<path class="node" id="node10" d="M850 680 c-42 -10 -60 -33 -60 -76 0 -97 147 -99 169 -3 9 39 0 58
-36 77 -24 13 -24 13 -73 2z m78 -22 c15 -15 15 -58 1 -78 -9 -12 -10 -11 -5
4 7 19 6 19 -13 2 -13 -12 -31 -16 -58 -14 -36 4 -38 6 -38 38 0 27 6 37 25
47 32 16 72 17 88 1z"></path>
</g>
<g transform="translate(0.000000,300.000000) scale(0.100000,-0.100000)" fill="#FFFFFF" stroke="none">

<path class="node" id="node12" d="M1017 2316 c-4 -10 -18 -16 -36 -16 -20 0 -36 -8 -50 -26 -22 -28
-28 -50 -11 -39 14 9 50 -32 50 -56 0 -20 1 -21 25 -5 52 34 105 7 105 -54 0
-14 -7 -36 -16 -48 -14 -21 -14 -22 5 -22 12 0 21 -4 21 -10 0 -5 -15 -10 -33
-10 -17 0 -47 -4 -66 -10 -29 -8 -36 -6 -52 13 -10 12 -18 35 -19 51 0 28 0
29 -20 11 -13 -12 -18 -25 -14 -40 8 -32 -9 -39 -88 -37 -65 2 -140 17 -202
41 -25 10 -32 9 -52 -10 -22 -21 -23 -24 -8 -40 26 -29 126 -77 209 -100 101
-28 236 -31 280 -7 l30 17 -32 11 c-18 7 -33 16 -33 21 0 12 16 11 38 0 9 -5
25 -12 35 -15 21 -7 22 -29 3 -49 -8 -8 -21 -29 -29 -48 -42 -101 -186 -199
-291 -199 -65 0 -120 21 -142 55 -15 23 -15 27 9 70 14 25 23 45 19 45 -16 -1
-62 -82 -62 -108 1 -64 84 -218 171 -316 l53 -59 61 6 c71 7 166 40 187 65 32
38 152 272 196 382 21 54 25 80 24 155 -1 99 -24 231 -50 285 -27 55 -201 133
-215 96z m87 -57 c14 -17 26 -38 26 -47 0 -9 3 -28 7 -42 6 -22 5 -24 -10 -11
-9 7 -17 20 -17 29 0 8 -19 32 -41 53 -28 25 -39 44 -35 54 8 21 34 7 70 -36z"></path>
<path class="node" id="node13" d="M1070 2265 c13 -14 26 -25 28 -25 3 0 -5 11 -18 25 -13 14 -26 25
-28 25 -3 0 5 -11 18 -25z"></path>
<path class="node" id="node14" d="M978 2313 c7 -3 16 -2 19 1 4 3 -2 6 -13 5 -11 0 -14 -3 -6 -6z"></path>
<path class="node" id="node15" d="M430 2200 c0 -11 69 -63 114 -87 25 -13 33 -13 50 -3 19 12 20 12 7
-4 -17 -21 -16 -22 41 -37 42 -12 49 -11 68 6 11 10 24 32 29 49 l9 31 1 -32
c1 -21 -7 -41 -19 -53 -14 -14 -16 -20 -6 -20 7 0 27 -3 43 -6 24 -5 31 -2 41
21 18 39 15 54 -17 86 -20 19 -40 29 -60 29 -28 0 -30 -2 -20 -23 6 -14 7 -31
1 -47 -9 -23 -10 -22 -10 12 0 20 -3 41 -7 47 -3 6 -37 11 -74 11 -60 0 -69
-2 -74 -20 -3 -11 -11 -20 -17 -20 -10 0 -10 4 0 15 7 9 11 17 9 18 -50 35
-109 50 -109 27z m193 -55 c-7 -21 -13 -19 -13 6 0 11 4 18 10 14 5 -3 7 -12
3 -20z m43 -64 c-15 -15 -16 -13 -4 19 9 26 13 30 16 16 2 -10 -3 -26 -12 -35z
m114 -11 c-6 -11 -13 -20 -16 -20 -2 0 0 9 6 20 6 11 13 20 16 20 2 0 0 -9 -6
-20z"></path>
<path class="node" id="node16" d="M922 2185 c-7 -14 -26 -32 -42 -39 l-30 -12 24 -23 24 -22 21 27 c26
33 37 72 24 85 -6 6 -14 0 -21 -16z"></path>
<path class="node" id="node17" d="M1037 2151 c5 -21 -39 -61 -68 -61 -25 0 -24 -25 2 -44 58 -40 143
58 93 108 -21 21 -33 20 -27 -3z"></path>
<path class="node" id="node18" d="M827 2101 c3 -23 1 -41 -6 -45 -6 -4 -11 -11 -11 -17 0 -16 19 -10
42 13 16 16 20 17 15 5 -4 -11 -1 -17 8 -17 8 0 15 4 15 8 0 10 -58 92 -64 92
-2 0 -2 -17 1 -39z"></path>
<path class="node" id="node19" d="M555 1971 c-3 -2 -5 -19 -5 -37 0 -40 53 -90 107 -100 32 -6 40 -3
60 20 26 30 29 46 11 46 -7 0 -48 17 -91 38 -42 21 -80 36 -82 33z"></path>
<path class="node" id="node20" d="M1460 1901 c0 -20 13 -41 21 -35 15 9 10 44 -6 44 -8 0 -15 -4 -15
-9z"></path>
<path class="node" id="node21" d="M731 1848 c-18 -21 -38 -38 -45 -38 -17 0 -59 -77 -52 -95 11 -29 69
-55 122 -55 104 0 210 63 269 160 18 30 32 56 31 57 -1 2 -28 -3 -59 -9 -47
-10 -74 -9 -146 3 l-89 14 -31 -37z"></path>
<path class="node" id="node22" d="M1650 1865 c-10 -13 -9 -15 9 -15 12 0 21 6 21 15 0 8 -4 15 -9 15
-5 0 -14 -7 -21 -15z"></path>
<path class="node" id="node23" d="M1486 1814 c-13 -34 -7 -44 20 -34 32 13 44 13 44 0 0 -5 -8 -10 -18
-10 -10 0 -27 -6 -37 -14 -18 -13 -15 -14 26 -9 41 5 48 2 67 -21 11 -15 23
-32 25 -39 2 -7 8 -9 12 -5 5 5 -4 25 -19 45 -31 45 -19 53 39 29 46 -19 45
-19 45 -1 0 8 -12 17 -27 21 -48 10 -73 23 -73 39 0 18 -11 19 -44 4 -19 -9
-29 -9 -40 0 -11 9 -15 8 -20 -5z"></path>
<path class="node" id="node24" d="M190 1800 c0 -6 12 -16 28 -22 31 -14 62 -38 62 -49 0 -4 -10 -10
-22 -12 l-23 -4 23 -8 c30 -10 28 -21 -8 -40 -16 -9 -30 -20 -30 -25 0 -15 9
-12 32 10 28 25 41 25 89 -2 21 -12 42 -19 45 -15 3 3 -2 23 -12 44 -14 28
-25 38 -42 38 -13 0 -29 7 -35 15 -19 24 -87 80 -97 80 -6 0 -10 -5 -10 -10z
m178 -129 c3 -9 -2 -9 -22 0 -14 7 -26 16 -26 20 0 12 43 -6 48 -20z"></path>
<path class="node" id="node25" d="M360 1800 c0 -5 5 -10 11 -10 5 0 7 5 4 10 -3 6 -8 10 -11 10 -2 0
-4 -4 -4 -10z"></path>
<path class="node" id="node26" d="M180 1731 c0 -12 6 -21 16 -21 9 0 14 7 12 17 -5 25 -28 28 -28 4z"></path>
<path class="node" id="node27" d="M1446 1704 c-23 -23 -20 -30 4 -9 11 10 20 20 20 22 0 7 -9 2 -24
-13z"></path>
<path class="node" id="node28" d="M450 1536 c46 -58 70 -79 70 -60 0 9 -90 108 -107 118 -8 4 8 -22 37
-58z"></path>
<path class="node" id="node29" d="M1345 1590 c-3 -5 -2 -10 4 -10 5 0 13 5 16 10 3 6 2 10 -4 10 -5 0
-13 -4 -16 -10z"></path>
<path class="node" id="node30" d="M1300 1546 c-14 -8 -41 -36 -59 -62 l-35 -47 43 24 c43 24 91 72 91
90 0 12 -10 11 -40 -5z"></path>
<path class="node" id="node31" d="M517 1463 c-13 -12 -7 -25 8 -19 11 4 15 1 13 -10 -2 -9 7 -20 20
-25 28 -11 28 -1 -3 34 -26 29 -28 30 -38 20z"></path>
<path class="node" id="node32" d="M590 1423 c0 -12 49 -73 50 -62 0 3 -11 20 -25 39 -14 19 -25 29 -25
23z"></path>
<path class="node" id="node33" d="M1184 1415 c-10 -8 -14 -14 -9 -15 15 0 40 18 34 24 -3 3 -14 -1 -25
-9z"></path>
<path class="node" id="node34" d="M1060 1379 c-48 -41 -124 -62 -213 -57 l-71 3 -13 -45 c-18 -61 -8
-132 24 -170 51 -62 179 -75 280 -30 56 25 139 108 148 150 6 26 -12 110 -23
110 -3 0 -13 -7 -23 -16 -22 -19 -55 -11 -70 19 -10 17 -8 24 10 38 26 21 27
29 4 29 -10 -1 -34 -14 -53 -31z m-185 -145 c29 -8 57 -50 50 -74 -14 -43
-102 -65 -137 -33 -22 20 -23 45 -3 83 16 30 42 37 90 24z"></path>
<path class="node" id="node35" d="M802 1210 c-16 -26 -15 -45 3 -60 18 -15 75 -4 75 16 0 8 5 14 11 14
6 0 9 -7 5 -15 -3 -8 -1 -15 4 -15 20 0 9 39 -16 59 -34 26 -66 27 -82 1z"></path>
<path class="node" id="node36" d="M1122 1368 c-13 -13 2 -38 24 -38 12 0 34 29 34 44 0 11 -46 6 -58
-6z"></path>
<path class="node" id="node37" d="M676 1344 c-3 -8 -2 -12 3 -9 5 3 12 -3 16 -14 3 -10 14 -26 24 -35
17 -15 18 -15 28 7 10 20 7 25 -27 45 -33 18 -39 19 -44 6z"></path>
<path class="node" id="node38" d="M1210 1186 c-51 -83 -181 -157 -277 -156 -39 0 -128 32 -153 55 -34
30 -87 -18 -113 -103 -58 -185 -60 -317 -7 -421 39 -79 75 -96 226 -113 306
-33 620 100 664 281 7 31 10 84 8 127 -5 66 -10 81 -54 155 -59 98 -134 170
-195 188 -24 7 -51 14 -60 17 -11 3 -24 -7 -39 -30z m95 -66 c-41 -42 -111
-86 -186 -115 -100 -39 -93 -28 16 25 55 26 118 64 140 84 49 43 70 47 30 6z
m-505 -167 c35 -24 40 -33 40 -80 0 -54 -26 -83 -74 -83 -52 0 -79 28 -80 82
-2 79 57 120 114 81z m123 -275 c36 -19 45 -38 36 -77 -22 -96 -169 -94 -169
3 0 43 18 66 60 76 49 11 49 11 73 -2z"></path>
<path class="node" id="node39" d="M722 937 c-33 -35 -29 -79 8 -95 39 -18 64 -12 68 16 2 12 8 20 13
17 17 -11 9 -34 -18 -49 -17 -9 -22 -15 -12 -16 22 0 49 32 49 59 0 33 -17 59
-50 76 -36 19 -32 19 -58 -8z"></path>
<path class="node" id="node40" d="M840 657 c-19 -10 -25 -20 -25 -47 0 -32 2 -34 38 -38 27 -2 45 2 58
14 19 17 20 17 13 -2 -5 -15 -4 -16 5 -4 14 20 14 63 -1 78 -16 16 -56 15 -88
-1z"></path>
<path class="node" id="node41" d="M1536 652 c-28 -43 -55 -69 -113 -107 -25 -16 -43 -35 -43 -46 0 -25
63 -94 99 -109 94 -38 243 107 228 222 -7 54 -21 64 -90 71 l-58 6 -23 -37z"></path>
<path class="node" id="node42" d="M762 384 c-19 -52 -20 -60 -6 -86 8 -15 33 -40 55 -55 73 -48 219
-41 270 13 18 19 21 31 16 67 -13 94 -12 93 -134 100 -59 4 -124 9 -144 13
l-35 6 -22 -58z"></path>
</g>
</svg>